<svg xmlns="http://www.w3.org/2000/svg" width="24px" height="24px" viewBox="0 0 24 24">
  <path fill="#fff" d="M12 0C5.9 0 1.5 4.5 1.5 10.1 1.5 16.8 10.2 23 12 24c1.8-1 10.5-7.2 10.5-13.9C22.5 4.5 18.1 0 12 0Z"/>
  <circle cx="12" cy="10.2" r="8.5" fill="#4F8868"/>
  <path fill="#fff" d="M12 4.1c1.2 1.7 1.8 3.1 0 5-1.8-1.9-1.2-3.3 0-5Zm-1 5.4C8.4 9.3 7 8.2 6.1 6.8c2.8-.3 4.4.3 4.9 2.7Zm2 0c.5-2.4 2.1-3 4.9-2.7-.9 1.4-2.3 2.5-4.9 2.7Zm-1.8.7c-.7 2.7-2.3 3.6-5.4 3.1 1.1-1.8 2.6-3 5.4-3.1Zm1.6 0c2.8.1 4.3 1.3 5.4 3.1-3.1.5-4.7-.4-5.4-3.1ZM7 14.2c3.3 1.5 6.7 1.5 10 0v1.4c-3.3 1.4-6.7 1.4-10 0Z"/>
</svg>
